<svg xmlns="http://www.w3.org/2000/svg" xmlns:xlink="http://www.w3.org/1999/xlink" width="70" zoomAndPan="magnify" viewBox="0 0 52.5 42" height="56" preserveAspectRatio="xMidYMid meet" version="1.0"><defs><clipPath id="1c351681ca"><path d="M 0.367188 0 L 51.644531 0 L 51.644531 41.023438 L 0.367188 41.023438 Z M 0.367188 0 " clip-rule="nonzero"/></clipPath><clipPath id="f7aeda6370"><path d="M 19 34 L 35 34 L 35 39.816406 L 19 39.816406 Z M 19 34 " clip-rule="nonzero"/></clipPath><clipPath id="d1ce836734"><path d="M 27 16 L 48.371094 16 L 48.371094 39.816406 L 27 39.816406 Z M 27 16 " clip-rule="nonzero"/></clipPath><clipPath id="aaa22ae7a8"><path d="M 3.6875 22 L 23 22 L 23 39.816406 L 3.6875 39.816406 Z M 3.6875 22 " clip-rule="nonzero"/></clipPath></defs><g clip-path="url(#1c351681ca)"><path fill="#ffffff" d="M 0.367188 0 L 51.644531 0 L 51.644531 41.023438 L 0.367188 41.023438 Z M 0.367188 0 " fill-opacity="1" fill-rule="nonzero"/><path fill="#ffffff" d="M 0.367188 0 L 51.644531 0 L 51.644531 41.023438 L 0.367188 41.023438 Z M 0.367188 0 " fill-opacity="1" fill-rule="nonzero"/></g><g clip-path="url(#f7aeda6370)"><path fill="#c6ac82" d="M 29.917969 34.894531 L 24.550781 34.894531 C 21.773438 34.894531 19.523438 37.144531 19.523438 39.917969 L 19.523438 40.003906 L 34.941406 40.003906 L 34.941406 39.917969 C 34.941406 37.144531 32.691406 34.894531 29.917969 34.894531 Z M 29.917969 34.894531 " fill-opacity="1" fill-rule="nonzero"/></g><path fill="#c6ac82" d="M 32.101562 27.894531 C 32.101562 28.234375 32.070312 28.566406 32.003906 28.898438 C 31.9375 29.230469 31.839844 29.554688 31.710938 29.863281 C 31.582031 30.175781 31.421875 30.472656 31.234375 30.753906 C 31.046875 31.035156 30.832031 31.296875 30.59375 31.535156 C 30.355469 31.773438 30.09375 31.988281 29.816406 32.175781 C 29.535156 32.363281 29.238281 32.523438 28.925781 32.652344 C 28.613281 32.78125 28.289062 32.878906 27.957031 32.945312 C 27.628906 33.011719 27.292969 33.042969 26.953125 33.042969 C 26.617188 33.042969 26.28125 33.011719 25.949219 32.945312 C 25.617188 32.878906 25.296875 32.78125 24.984375 32.652344 C 24.671875 32.523438 24.375 32.363281 24.09375 32.175781 C 23.8125 31.988281 23.554688 31.773438 23.316406 31.535156 C 23.074219 31.296875 22.863281 31.035156 22.675781 30.753906 C 22.488281 30.472656 22.328125 30.175781 22.199219 29.863281 C 22.070312 29.554688 21.972656 29.230469 21.90625 28.898438 C 21.839844 28.566406 21.808594 28.234375 21.808594 27.894531 C 21.808594 27.558594 21.839844 27.222656 21.90625 26.890625 C 21.972656 26.558594 22.070312 26.238281 22.199219 25.925781 C 22.328125 25.613281 22.488281 25.316406 22.675781 25.035156 C 22.863281 24.753906 23.074219 24.496094 23.316406 24.253906 C 23.554688 24.015625 23.8125 23.804688 24.09375 23.613281 C 24.375 23.425781 24.671875 23.269531 24.984375 23.140625 C 25.296875 23.011719 25.617188 22.914062 25.949219 22.847656 C 26.28125 22.78125 26.617188 22.746094 26.953125 22.746094 C 27.292969 22.746094 27.628906 22.78125 27.957031 22.847656 C 28.289062 22.914062 28.613281 23.011719 28.925781 23.140625 C 29.238281 23.269531 29.535156 23.425781 29.816406 23.613281 C 30.09375 23.804688 30.355469 24.015625 30.59375 24.253906 C 30.832031 24.496094 31.046875 24.753906 31.234375 25.035156 C 31.421875 25.316406 31.582031 25.613281 31.710938 25.925781 C 31.839844 26.238281 31.9375 26.558594 32.003906 26.890625 C 32.070312 27.222656 32.101562 27.558594 32.101562 27.894531 Z M 32.101562 27.894531 " fill-opacity="1" fill-rule="nonzero"/><path fill="#c6ac82" d="M 21.164062 13.640625 C 21.164062 14.109375 21.121094 14.578125 21.027344 15.039062 C 20.9375 15.496094 20.800781 15.945312 20.621094 16.378906 C 20.441406 16.8125 20.222656 17.226562 19.960938 17.617188 C 19.699219 18.007812 19.402344 18.367188 19.070312 18.699219 C 18.738281 19.03125 18.375 19.328125 17.984375 19.589844 C 17.59375 19.851562 17.183594 20.070312 16.75 20.25 C 16.316406 20.429688 15.867188 20.566406 15.40625 20.660156 C 14.945312 20.75 14.480469 20.796875 14.011719 20.796875 C 13.542969 20.796875 13.074219 20.75 12.613281 20.660156 C 12.15625 20.566406 11.707031 20.429688 11.273438 20.25 C 10.839844 20.070312 10.425781 19.851562 10.035156 19.589844 C 9.644531 19.328125 9.285156 19.03125 8.953125 18.699219 C 8.621094 18.367188 8.324219 18.007812 8.0625 17.617188 C 7.800781 17.226562 7.582031 16.8125 7.402344 16.378906 C 7.222656 15.945312 7.085938 15.496094 6.992188 15.039062 C 6.902344 14.578125 6.855469 14.109375 6.855469 13.640625 C 6.855469 13.171875 6.902344 12.707031 6.992188 12.246094 C 7.085938 11.785156 7.222656 11.335938 7.402344 10.902344 C 7.582031 10.46875 7.800781 10.058594 8.0625 9.667969 C 8.324219 9.277344 8.621094 8.914062 8.953125 8.582031 C 9.285156 8.25 9.644531 7.953125 10.035156 7.691406 C 10.425781 7.429688 10.839844 7.210938 11.273438 7.03125 C 11.707031 6.851562 12.15625 6.714844 12.613281 6.625 C 13.074219 6.53125 13.542969 6.488281 14.011719 6.488281 C 14.480469 6.488281 14.945312 6.53125 15.40625 6.625 C 15.867188 6.714844 16.316406 6.851562 16.75 7.03125 C 17.183594 7.210938 17.59375 7.429688 17.984375 7.691406 C 18.375 7.953125 18.738281 8.25 19.070312 8.582031 C 19.402344 8.914062 19.699219 9.277344 19.960938 9.667969 C 20.222656 10.058594 20.441406 10.46875 20.621094 10.902344 C 20.800781 11.335938 20.9375 11.785156 21.027344 12.246094 C 21.121094 12.707031 21.164062 13.171875 21.164062 13.640625 Z M 21.164062 13.640625 " fill-opacity="1" fill-rule="nonzero"/><path fill="#c6ac82" d="M 44.371094 8.179688 C 44.371094 8.648438 44.324219 9.113281 44.234375 9.574219 C 44.140625 10.035156 44.007812 10.484375 43.828125 10.917969 C 43.648438 11.351562 43.425781 11.761719 43.164062 12.152344 C 42.902344 12.542969 42.609375 12.90625 42.277344 13.238281 C 41.941406 13.570312 41.582031 13.867188 41.191406 14.128906 C 40.800781 14.386719 40.386719 14.609375 39.953125 14.789062 C 39.519531 14.96875 39.074219 15.105469 38.613281 15.195312 C 38.152344 15.289062 37.6875 15.332031 37.214844 15.332031 C 36.746094 15.332031 36.28125 15.289062 35.820312 15.195312 C 35.359375 15.105469 34.914062 14.96875 34.476562 14.789062 C 34.042969 14.609375 33.632812 14.386719 33.242188 14.128906 C 32.851562 13.867188 32.488281 13.570312 32.15625 13.238281 C 31.824219 12.90625 31.527344 12.542969 31.265625 12.152344 C 31.007812 11.761719 30.785156 11.351562 30.605469 10.917969 C 30.425781 10.484375 30.289062 10.035156 30.199219 9.574219 C 30.105469 9.113281 30.0625 8.648438 30.0625 8.179688 C 30.0625 7.707031 30.105469 7.242188 30.199219 6.78125 C 30.289062 6.320312 30.425781 5.875 30.605469 5.441406 C 30.785156 5.007812 31.007812 4.59375 31.265625 4.203125 C 31.527344 3.8125 31.824219 3.453125 32.15625 3.121094 C 32.488281 2.789062 32.851562 2.492188 33.242188 2.230469 C 33.632812 1.96875 34.042969 1.75 34.476562 1.566406 C 34.914062 1.386719 35.359375 1.253906 35.820312 1.160156 C 36.28125 1.070312 36.746094 1.023438 37.214844 1.023438 C 37.6875 1.023438 38.152344 1.070312 38.613281 1.160156 C 39.074219 1.253906 39.519531 1.386719 39.953125 1.566406 C 40.386719 1.75 40.800781 1.96875 41.191406 2.230469 C 41.582031 2.492188 41.941406 2.789062 42.277344 3.121094 C 42.609375 3.453125 42.902344 3.8125 43.164062 4.203125 C 43.425781 4.59375 43.648438 5.007812 43.828125 5.441406 C 44.007812 5.875 44.140625 6.320312 44.234375 6.78125 C 44.324219 7.242188 44.371094 7.707031 44.371094 8.179688 Z M 44.371094 8.179688 " fill-opacity="1" fill-rule="nonzero"/><g clip-path="url(#d1ce836734)"><path fill="#c6ac82" d="M 41.332031 16.867188 L 33.875 16.867188 C 31.066406 16.867188 28.652344 18.527344 27.542969 20.917969 C 31.132812 21.21875 33.960938 24.230469 33.960938 27.894531 C 33.960938 30.027344 33 31.9375 31.492188 33.226562 C 34.53125 33.941406 36.800781 36.667969 36.800781 39.917969 L 36.800781 40.003906 L 48.316406 40.003906 L 48.316406 23.851562 C 48.316406 19.996094 45.191406 16.867188 41.332031 16.867188 Z M 41.332031 16.867188 " fill-opacity="1" fill-rule="nonzero"/></g><g clip-path="url(#aaa22ae7a8)"><path fill="#c6ac82" d="M 22.546875 33.335938 C 20.960938 32.046875 19.949219 30.089844 19.949219 27.894531 C 19.949219 26.136719 20.601562 24.535156 21.671875 23.304688 C 20.632812 22.691406 19.425781 22.332031 18.128906 22.332031 L 10.667969 22.332031 C 6.8125 22.332031 3.6875 25.457031 3.6875 29.3125 L 3.6875 40.003906 L 17.664062 40.003906 L 17.664062 39.917969 C 17.664062 36.820312 19.722656 34.195312 22.546875 33.335938 Z M 22.546875 33.335938 " fill-opacity="1" fill-rule="nonzero"/></g></svg>