<svg xmlns="http://www.w3.org/2000/svg" xmlns:xlink="http://www.w3.org/1999/xlink" width="70" zoomAndPan="magnify" viewBox="0 0 52.5 42" height="56" preserveAspectRatio="xMidYMid meet" version="1.0"><defs><clipPath id="bb04fc80af"><path d="M 0.367188 0 L 51.644531 0 L 51.644531 41.023438 L 0.367188 41.023438 Z M 0.367188 0 " clip-rule="nonzero"/></clipPath><clipPath id="0a8e1df275"><path d="M 6.375 0.878906 L 45.929688 0.878906 L 45.929688 40.4375 L 6.375 40.4375 Z M 6.375 0.878906 " clip-rule="nonzero"/></clipPath></defs><g clip-path="url(#bb04fc80af)"><path fill="#ffffff" d="M 0.367188 0 L 51.644531 0 L 51.644531 41.023438 L 0.367188 41.023438 Z M 0.367188 0 " fill-opacity="1" fill-rule="nonzero"/><path fill="#ffffff" d="M 0.367188 0 L 51.644531 0 L 51.644531 41.023438 L 0.367188 41.023438 Z M 0.367188 0 " fill-opacity="1" fill-rule="nonzero"/></g><g clip-path="url(#0a8e1df275)"><path fill="#c6ac82" d="M 39.292969 31.289062 L 35.5 31.289062 L 35.5 16.746094 L 39.292969 16.746094 Z M 40.5625 33.816406 L 34.238281 33.816406 L 34.238281 32.546875 L 40.5625 32.546875 Z M 42.453125 35.074219 L 42.453125 36.347656 L 9.578125 36.347656 L 9.578125 35.074219 Z M 44.355469 37.613281 L 44.355469 38.878906 L 7.675781 38.878906 L 7.675781 37.613281 Z M 11.472656 32.546875 L 17.792969 32.546875 L 17.792969 33.816406 L 11.472656 33.816406 Z M 12.742188 16.746094 L 16.535156 16.746094 L 16.535156 31.289062 L 12.742188 31.289062 Z M 11.472656 14.21875 L 17.792969 14.21875 L 17.792969 15.488281 L 11.472656 15.488281 Z M 7.675781 12.949219 L 7.675781 10.421875 L 44.351562 10.421875 L 44.351562 12.949219 Z M 41.9375 9.15625 L 10.097656 9.15625 L 26.015625 2.253906 Z M 22.855469 32.546875 L 29.179688 32.546875 L 29.179688 33.816406 L 22.855469 33.816406 Z M 22.855469 15.476562 L 22.855469 14.210938 L 29.179688 14.210938 L 29.179688 15.476562 Z M 27.910156 31.289062 L 24.117188 31.289062 L 24.117188 16.746094 L 27.910156 16.746094 Z M 19.058594 14.21875 L 21.589844 14.21875 L 21.589844 16.746094 L 22.855469 16.746094 L 22.855469 31.289062 L 21.589844 31.289062 L 21.589844 33.816406 L 19.058594 33.816406 L 19.058594 31.289062 L 17.792969 31.289062 L 17.792969 16.746094 L 19.058594 16.746094 Z M 32.972656 33.820312 L 30.445312 33.820312 L 30.445312 31.289062 L 29.179688 31.289062 L 29.179688 16.746094 L 30.445312 16.746094 L 30.445312 14.21875 L 32.972656 14.21875 L 32.972656 16.746094 L 34.238281 16.746094 L 34.238281 31.289062 L 32.972656 31.289062 Z M 40.5625 15.476562 L 34.242188 15.476562 L 34.242188 14.210938 L 40.5625 14.210938 Z M 41.824219 16.746094 L 41.824219 14.21875 L 45.617188 14.21875 L 45.617188 9.378906 L 26.015625 0.878906 L 6.417969 9.375 L 6.417969 14.210938 L 10.214844 14.210938 L 10.214844 16.738281 L 11.480469 16.738281 L 11.480469 31.28125 L 10.214844 31.28125 L 10.214844 33.808594 L 8.308594 33.808594 L 8.308594 36.335938 L 6.417969 36.335938 L 6.417969 40.140625 L 45.625 40.140625 L 45.625 36.34375 L 43.730469 36.34375 L 43.730469 33.816406 L 41.835938 33.816406 L 41.835938 31.289062 L 40.570312 31.289062 L 40.570312 16.746094 L 41.824219 16.746094 " fill-opacity="1" fill-rule="nonzero"/></g></svg>