<svg xmlns="http://www.w3.org/2000/svg" xmlns:xlink="http://www.w3.org/1999/xlink" width="70" zoomAndPan="magnify" viewBox="0 0 52.5 42" height="56" preserveAspectRatio="xMidYMid meet" version="1.0"><defs><clipPath id="1338b1a495"><path d="M 0.367188 0 L 51.644531 0 L 51.644531 41.023438 L 0.367188 41.023438 Z M 0.367188 0 " clip-rule="nonzero"/></clipPath><clipPath id="3d65003379"><path d="M 28.625 20.402344 L 43.976562 20.402344 L 43.976562 39.429688 L 28.625 39.429688 Z M 28.625 20.402344 " clip-rule="nonzero"/></clipPath><clipPath id="8139d9bd4b"><path d="M 20 1.335938 L 28 1.335938 L 28 3 L 20 3 Z M 20 1.335938 " clip-rule="nonzero"/></clipPath><clipPath id="5fee5c9112"><path d="M 11.300781 1.335938 L 19 1.335938 L 19 27 L 11.300781 27 Z M 11.300781 1.335938 " clip-rule="nonzero"/></clipPath><clipPath id="d5fc1f5717"><path d="M 11.300781 29 L 19 29 L 19 39 L 11.300781 39 Z M 11.300781 29 " clip-rule="nonzero"/></clipPath><clipPath id="ad4dad23b7"><path d="M 19 1.335938 L 20 1.335938 L 20 8 L 19 8 Z M 19 1.335938 " clip-rule="nonzero"/></clipPath><clipPath id="9e03af5d41"><path d="M 19 27 L 20 27 L 20 39.429688 L 19 39.429688 Z M 19 27 " clip-rule="nonzero"/></clipPath></defs><g clip-path="url(#1338b1a495)"><path fill="#ffffff" d="M 0.367188 0 L 51.644531 0 L 51.644531 41.023438 L 0.367188 41.023438 Z M 0.367188 0 " fill-opacity="1" fill-rule="nonzero"/><path fill="#ffffff" d="M 0.367188 0 L 51.644531 0 L 51.644531 41.023438 L 0.367188 41.023438 Z M 0.367188 0 " fill-opacity="1" fill-rule="nonzero"/></g><g clip-path="url(#3d65003379)"><path fill="#c6ac82" d="M 43.351562 28.035156 C 43.351562 30.910156 42.167969 33.710938 40.109375 35.71875 L 36.957031 38.785156 C 36.589844 39.140625 36.019531 39.140625 35.652344 38.785156 L 32.5 35.71875 C 30.441406 33.710938 29.257812 30.910156 29.257812 28.035156 L 29.257812 25.8125 C 29.257812 25.570312 29.429688 25.359375 29.664062 25.316406 C 31.230469 25.007812 32.425781 23.738281 32.640625 22.15625 C 32.664062 21.964844 32.792969 21.800781 32.972656 21.726562 C 34.078125 21.269531 35.191406 21.042969 36.304688 21.042969 C 37.417969 21.042969 38.53125 21.269531 39.636719 21.726562 C 39.816406 21.800781 39.941406 21.964844 39.96875 22.15625 C 40.179688 23.738281 41.378906 25.007812 42.945312 25.316406 C 43.179688 25.359375 43.351562 25.570312 43.351562 25.8125 Z M 43.066406 24.699219 C 41.761719 24.441406 40.769531 23.386719 40.589844 22.074219 C 40.535156 21.660156 40.261719 21.304688 39.875 21.144531 C 37.503906 20.167969 35.101562 20.167969 32.734375 21.144531 C 32.347656 21.304688 32.074219 21.660156 32.015625 22.074219 C 31.839844 23.386719 30.847656 24.441406 29.542969 24.699219 C 29.015625 24.800781 28.632812 25.269531 28.632812 25.8125 L 28.632812 28.035156 C 28.632812 31.078125 29.882812 34.042969 32.0625 36.167969 L 35.214844 39.234375 C 35.519531 39.535156 35.910156 39.683594 36.304688 39.683594 C 36.695312 39.683594 37.089844 39.535156 37.394531 39.234375 L 40.546875 36.167969 C 42.726562 34.042969 43.976562 31.078125 43.976562 28.035156 L 43.976562 25.8125 C 43.976562 25.269531 43.59375 24.800781 43.066406 24.699219 " fill-opacity="1" fill-rule="nonzero"/></g><g clip-path="url(#8139d9bd4b)"><path fill="#c6ac82" d="M 20.785156 2.597656 L 26.773438 2.597656 C 26.945312 2.597656 27.085938 2.457031 27.085938 2.28125 C 27.085938 2.109375 26.945312 1.96875 26.773438 1.96875 L 20.785156 1.96875 C 20.613281 1.96875 20.472656 2.109375 20.472656 2.28125 C 20.472656 2.457031 20.613281 2.597656 20.785156 2.597656 " fill-opacity="1" fill-rule="nonzero"/></g><g clip-path="url(#5fee5c9112)"><path fill="#c6ac82" d="M 11.632812 26.488281 C 11.804688 26.488281 11.945312 26.347656 11.945312 26.175781 L 11.945312 3.535156 C 11.945312 3.015625 12.367188 2.597656 12.882812 2.597656 L 17.839844 2.597656 C 18.015625 2.597656 18.15625 2.457031 18.15625 2.28125 C 18.15625 2.109375 18.015625 1.96875 17.839844 1.96875 L 12.882812 1.96875 C 12.019531 1.96875 11.316406 2.671875 11.316406 3.535156 L 11.316406 26.175781 C 11.316406 26.347656 11.457031 26.488281 11.632812 26.488281 " fill-opacity="1" fill-rule="nonzero"/></g><g clip-path="url(#d5fc1f5717)"><path fill="#c6ac82" d="M 17.839844 37.714844 L 12.882812 37.714844 C 12.367188 37.714844 11.945312 37.296875 11.945312 36.777344 L 11.945312 29.566406 C 11.945312 29.390625 11.804688 29.25 11.632812 29.25 C 11.457031 29.25 11.316406 29.390625 11.316406 29.566406 L 11.316406 36.777344 C 11.316406 37.644531 12.019531 38.34375 12.882812 38.34375 L 17.839844 38.34375 C 18.015625 38.34375 18.15625 38.203125 18.15625 38.03125 C 18.15625 37.859375 18.015625 37.714844 17.839844 37.714844 " fill-opacity="1" fill-rule="nonzero"/></g><path fill="#c6ac82" d="M 32.324219 37.714844 L 20.785156 37.714844 C 20.613281 37.714844 20.472656 37.859375 20.472656 38.03125 C 20.472656 38.203125 20.613281 38.34375 20.785156 38.34375 L 32.324219 38.34375 C 32.496094 38.34375 32.636719 38.203125 32.636719 38.03125 C 32.636719 37.859375 32.496094 37.714844 32.324219 37.714844 " fill-opacity="1" fill-rule="nonzero"/><path fill="#c6ac82" d="M 35.992188 11.605469 L 35.992188 19.253906 C 35.992188 19.425781 36.132812 19.566406 36.304688 19.566406 C 36.476562 19.566406 36.617188 19.425781 36.617188 19.253906 L 36.617188 11.605469 C 36.617188 11.433594 36.476562 11.292969 36.304688 11.292969 C 36.132812 11.292969 35.992188 11.433594 35.992188 11.605469 " fill-opacity="1" fill-rule="nonzero"/><path fill="#c6ac82" d="M 19.3125 25.394531 C 17.558594 25.394531 16.128906 23.964844 16.128906 22.210938 C 16.128906 20.453125 17.558594 19.023438 19.3125 19.023438 C 21.070312 19.023438 22.496094 20.453125 22.496094 22.210938 C 22.496094 23.964844 21.070312 25.394531 19.3125 25.394531 Z M 20.9375 26.011719 C 21.144531 25.933594 21.375 25.902344 21.605469 25.929688 L 22.21875 26 C 22.460938 26.027344 22.699219 25.945312 22.875 25.769531 C 23.046875 25.597656 23.132812 25.355469 23.105469 25.113281 L 23.035156 24.5 C 23.035156 24.5 23.035156 24.496094 23.03125 24.496094 C 23.03125 24.492188 23.03125 24.488281 23.03125 24.484375 C 22.980469 23.996094 23.179688 23.523438 23.566406 23.21875 L 24.046875 22.835938 C 24.238281 22.683594 24.347656 22.453125 24.347656 22.207031 C 24.347656 21.964844 24.238281 21.734375 24.046875 21.582031 L 23.566406 21.199219 C 23.175781 20.890625 22.976562 20.410156 23.035156 19.917969 L 23.105469 19.304688 C 23.132812 19.0625 23.046875 18.820312 22.875 18.648438 C 22.699219 18.472656 22.460938 18.390625 22.21875 18.417969 L 21.605469 18.488281 C 21.109375 18.546875 20.632812 18.347656 20.324219 17.957031 L 19.941406 17.476562 C 19.789062 17.285156 19.558594 17.171875 19.3125 17.171875 C 19.066406 17.171875 18.839844 17.285156 18.6875 17.476562 L 18.304688 17.957031 C 17.996094 18.347656 17.515625 18.546875 17.019531 18.488281 L 16.410156 18.417969 C 16.164062 18.390625 15.925781 18.472656 15.753906 18.648438 C 15.578125 18.820312 15.496094 19.0625 15.523438 19.304688 L 15.59375 19.917969 C 15.648438 20.410156 15.449219 20.890625 15.0625 21.199219 L 14.582031 21.582031 C 14.386719 21.734375 14.277344 21.964844 14.277344 22.207031 C 14.277344 22.453125 14.386719 22.683594 14.582031 22.835938 L 15.0625 23.21875 C 15.449219 23.527344 15.648438 24.007812 15.59375 24.5 L 15.523438 25.113281 C 15.496094 25.355469 15.578125 25.597656 15.753906 25.769531 C 15.925781 25.945312 16.164062 26.027344 16.410156 26 L 17.019531 25.929688 C 17.078125 25.921875 17.132812 25.917969 17.1875 25.917969 C 17.621094 25.917969 18.03125 26.113281 18.304688 26.460938 L 18.6875 26.941406 C 18.839844 27.132812 19.066406 27.246094 19.3125 27.246094 C 19.558594 27.246094 19.789062 27.132812 19.941406 26.941406 L 20.324219 26.460938 C 20.484375 26.253906 20.695312 26.105469 20.929688 26.015625 C 20.933594 26.015625 20.933594 26.011719 20.9375 26.011719 " fill-opacity="1" fill-rule="nonzero"/><path fill="#c6ac82" d="M 13.867188 27.667969 L 14.40625 27.621094 C 14.695312 27.597656 14.960938 27.78125 15.039062 28.0625 L 15.183594 28.582031 C 15.234375 28.753906 15.457031 28.792969 15.558594 28.648438 L 16.742188 26.945312 C 16.84375 26.796875 16.726562 26.597656 16.546875 26.617188 L 16.539062 26.617188 C 16.113281 26.667969 15.675781 26.550781 15.359375 26.261719 C 15.234375 26.152344 15.136719 26.023438 15.0625 25.882812 C 14.984375 25.746094 14.792969 25.730469 14.703125 25.859375 L 13.675781 27.339844 C 13.574219 27.484375 13.691406 27.683594 13.867188 27.667969 " fill-opacity="1" fill-rule="nonzero"/><path fill="#c6ac82" d="M 23.566406 25.882812 C 23.488281 26.023438 23.390625 26.152344 23.269531 26.261719 C 22.949219 26.550781 22.511719 26.667969 22.085938 26.617188 L 22.078125 26.617188 C 21.898438 26.597656 21.78125 26.796875 21.882812 26.945312 L 23.066406 28.648438 C 23.167969 28.792969 23.390625 28.753906 23.441406 28.582031 L 23.585938 28.0625 C 23.664062 27.78125 23.929688 27.597656 24.21875 27.621094 L 24.757812 27.667969 C 24.933594 27.683594 25.050781 27.484375 24.949219 27.339844 L 23.921875 25.863281 C 23.832031 25.730469 23.640625 25.746094 23.566406 25.882812 " fill-opacity="1" fill-rule="nonzero"/><path fill="#c6ac82" d="M 19.3125 19.652344 C 17.902344 19.652344 16.757812 20.800781 16.757812 22.210938 C 16.757812 23.617188 17.902344 24.765625 19.3125 24.765625 C 20.722656 24.765625 21.871094 23.617188 21.871094 22.210938 C 21.871094 20.800781 20.722656 19.652344 19.3125 19.652344 " fill-opacity="1" fill-rule="nonzero"/><path fill="#c6ac82" d="M 39.8125 29.253906 C 39.785156 29.023438 39.738281 28.800781 39.667969 28.585938 C 39.5625 28.269531 39.148438 28.199219 38.941406 28.457031 L 36.535156 31.472656 C 36.476562 31.550781 36.386719 31.59375 36.289062 31.59375 C 36.285156 31.59375 36.28125 31.59375 36.277344 31.59375 C 36.179688 31.589844 36.085938 31.539062 36.03125 31.453125 L 34.378906 29.023438 C 34.28125 28.878906 34.320312 28.683594 34.464844 28.585938 C 34.609375 28.492188 34.804688 28.527344 34.898438 28.671875 L 36.3125 30.75 L 38.765625 27.671875 C 38.898438 27.503906 38.886719 27.257812 38.730469 27.109375 C 37.40625 25.859375 35.289062 25.835938 33.9375 27.050781 C 33.09375 27.8125 32.664062 28.953125 32.789062 30.082031 C 32.96875 31.703125 34.28125 33.011719 35.898438 33.195312 C 38.03125 33.429688 39.84375 31.761719 39.84375 29.679688 C 39.84375 29.566406 39.835938 29.457031 39.824219 29.351562 C 39.824219 29.320312 39.816406 29.285156 39.8125 29.253906 " fill-opacity="1" fill-rule="nonzero"/><path fill="#c6ac82" d="M 28.863281 10.664062 L 36.085938 10.664062 C 36.273438 10.664062 36.367188 10.4375 36.234375 10.304688 L 28.28125 2.351562 C 28.148438 2.21875 27.925781 2.3125 27.925781 2.5 L 27.925781 9.726562 C 27.925781 10.242188 28.34375 10.664062 28.863281 10.664062 " fill-opacity="1" fill-rule="nonzero"/><g clip-path="url(#ad4dad23b7)"><path fill="#c6ac82" d="M 19.3125 7.042969 C 19.488281 7.042969 19.628906 6.902344 19.628906 6.726562 L 19.628906 1.652344 C 19.628906 1.476562 19.488281 1.335938 19.3125 1.335938 C 19.140625 1.335938 19 1.476562 19 1.652344 L 19 6.726562 C 19 6.902344 19.140625 7.042969 19.3125 7.042969 " fill-opacity="1" fill-rule="nonzero"/></g><path fill="#c6ac82" d="M 19 13.640625 L 19 16.441406 C 19 16.613281 19.140625 16.753906 19.3125 16.753906 C 19.488281 16.753906 19.628906 16.613281 19.628906 16.441406 L 19.628906 13.640625 C 19.628906 13.464844 19.488281 13.324219 19.3125 13.324219 C 19.140625 13.324219 19 13.464844 19 13.640625 " fill-opacity="1" fill-rule="nonzero"/><g clip-path="url(#9e03af5d41)"><path fill="#c6ac82" d="M 19.3125 27.664062 C 19.140625 27.664062 19 27.804688 19 27.976562 L 19 38.871094 C 19 39.046875 19.140625 39.1875 19.3125 39.1875 C 19.488281 39.1875 19.628906 39.046875 19.628906 38.871094 L 19.628906 27.976562 C 19.628906 27.804688 19.488281 27.664062 19.3125 27.664062 " fill-opacity="1" fill-rule="nonzero"/></g><path fill="#c6ac82" d="M 24.359375 10.183594 C 24.359375 10.007812 24.21875 9.867188 24.046875 9.867188 L 14.582031 9.867188 C 14.40625 9.867188 14.265625 10.007812 14.265625 10.183594 C 14.265625 10.355469 14.40625 10.496094 14.582031 10.496094 L 24.046875 10.496094 C 24.21875 10.496094 24.359375 10.355469 24.359375 10.183594 " fill-opacity="1" fill-rule="nonzero"/><path fill="#c6ac82" d="M 22.277344 8.304688 C 22.453125 8.304688 22.59375 8.164062 22.59375 7.988281 C 22.59375 7.816406 22.453125 7.675781 22.277344 7.675781 L 16.347656 7.675781 C 16.175781 7.675781 16.035156 7.816406 16.035156 7.988281 C 16.035156 8.164062 16.175781 8.304688 16.347656 8.304688 L 22.277344 8.304688 " fill-opacity="1" fill-rule="nonzero"/><path fill="#c6ac82" d="M 22.59375 12.378906 C 22.59375 12.203125 22.453125 12.0625 22.277344 12.0625 L 16.347656 12.0625 C 16.175781 12.0625 16.035156 12.203125 16.035156 12.378906 C 16.035156 12.550781 16.175781 12.691406 16.347656 12.691406 L 22.277344 12.691406 C 22.453125 12.691406 22.59375 12.550781 22.59375 12.378906 " fill-opacity="1" fill-rule="nonzero"/></svg>