<svg xmlns="http://www.w3.org/2000/svg" xmlns:xlink="http://www.w3.org/1999/xlink" width="192" zoomAndPan="magnify" viewBox="0 0 144 33.749998" height="45" preserveAspectRatio="xMidYMid meet" version="1.0"><defs><g/><clipPath id="fe36957030"><path d="M 5 3.269531 L 33 3.269531 L 33 18 L 5 18 Z M 5 3.269531 " clip-rule="nonzero"/></clipPath><clipPath id="4e58a5baa3"><path d="M 20 20 L 24 20 L 24 33.5 L 20 33.5 Z M 20 20 " clip-rule="nonzero"/></clipPath><clipPath id="31ab7cd489"><path d="M 14 20 L 18 20 L 18 33.5 L 14 33.5 Z M 14 20 " clip-rule="nonzero"/></clipPath><clipPath id="69423bcc13"><path d="M 3.878906 20 L 11 20 L 11 32 L 3.878906 32 Z M 3.878906 20 " clip-rule="nonzero"/></clipPath></defs><g fill="#ffffff" fill-opacity="1"><g transform="translate(42.29415, 20.4405)"><g><path d="M 1.136719 0 L 3.832031 0 C 6.226562 0 7.832031 -1.59375 7.832031 -3.898438 C 7.832031 -6.203125 6.226562 -7.796875 3.832031 -7.796875 L 1.136719 -7.796875 Z M 2.117188 -0.9375 L 2.117188 -6.863281 L 3.789062 -6.863281 C 5.601562 -6.863281 6.828125 -5.671875 6.828125 -3.898438 C 6.828125 -2.128906 5.613281 -0.9375 3.832031 -0.9375 Z M 2.117188 -0.9375 "/></g></g></g><g fill="#ffffff" fill-opacity="1"><g transform="translate(53.219755, 20.4405)"><g><path d="M 1.136719 0 L 5.992188 0 L 5.992188 -0.914062 L 2.117188 -0.914062 L 2.117188 -3.519531 L 5.59375 -3.519531 L 5.59375 -4.421875 L 2.117188 -4.421875 L 2.117188 -6.882812 L 5.871094 -6.882812 L 5.871094 -7.796875 L 1.136719 -7.796875 Z M 1.136719 0 "/></g></g></g><g fill="#ffffff" fill-opacity="1"><g transform="translate(62.385804, 20.4405)"><g><path d="M 3.296875 0 L 4.210938 0 L 7.308594 -7.796875 L 6.273438 -7.796875 L 4.96875 -4.511719 L 3.753906 -1.414062 L 2.527344 -4.511719 L 1.238281 -7.796875 L 0.1875 -7.796875 Z M 3.296875 0 "/></g></g></g><g fill="#ffffff" fill-opacity="1"><g transform="translate(72.331401, 20.4405)"><g><path d="M 4.679688 0.144531 C 7.050781 0.144531 8.722656 -1.527344 8.722656 -3.898438 C 8.722656 -6.273438 7.050781 -7.941406 4.679688 -7.941406 C 2.304688 -7.941406 0.644531 -6.273438 0.644531 -3.898438 C 0.644531 -1.527344 2.304688 0.144531 4.679688 0.144531 Z M 1.648438 -3.898438 C 1.648438 -5.714844 2.886719 -6.960938 4.679688 -6.960938 C 6.472656 -6.960938 7.707031 -5.714844 7.707031 -3.898438 C 7.707031 -2.082031 6.472656 -0.835938 4.679688 -0.835938 C 2.886719 -0.835938 1.648438 -2.082031 1.648438 -3.898438 Z M 1.648438 -3.898438 "/></g></g></g><g fill="#ffffff" fill-opacity="1"><g transform="translate(84.136785, 20.4405)"><g><path d="M 1.136719 0 L 2.117188 0 L 2.117188 -2.796875 L 3.832031 -2.796875 L 5.738281 0 L 6.917969 0 L 4.957031 -2.894531 C 6.09375 -3.175781 6.796875 -4.03125 6.796875 -5.292969 C 6.796875 -6.839844 5.726562 -7.796875 4.109375 -7.796875 L 1.136719 -7.796875 Z M 2.117188 -3.730469 L 2.117188 -6.863281 L 4 -6.863281 C 5.136719 -6.863281 5.792969 -6.28125 5.792969 -5.292969 C 5.792969 -4.300781 5.136719 -3.730469 4 -3.730469 Z M 2.117188 -3.730469 "/></g></g></g><g fill="#ffffff" fill-opacity="1"><g transform="translate(94.171478, 20.4405)"><g><path d="M 0.1875 0 L 1.238281 0 L 1.949219 -1.769531 L 5.746094 -1.769531 L 6.484375 0 L 7.519531 0 L 4.3125 -7.796875 L 3.398438 -7.796875 Z M 2.328125 -2.683594 L 3.855469 -6.425781 L 5.378906 -2.683594 Z M 2.328125 -2.683594 "/></g></g></g><g fill="#ffffff" fill-opacity="1"><g transform="translate(104.328671, 20.4405)"><g><path d="M 6.25 0 L 7.230469 0 L 7.230469 -7.796875 L 6.25 -7.796875 L 6.25 -4.445312 L 2.117188 -4.445312 L 2.117188 -7.796875 L 1.136719 -7.796875 L 1.136719 0 L 2.117188 0 L 2.117188 -3.507812 L 6.25 -3.507812 Z M 6.25 0 "/></g></g></g><g fill="#ffffff" fill-opacity="1"><g transform="translate(115.142909, 20.4405)"><g/></g></g><g fill="#ffffff" fill-opacity="1"><g transform="translate(120.355529, 20.4405)"><g><path d="M 1.136719 0 L 2.117188 0 L 2.117188 -3.507812 L 3.230469 -3.507812 C 3.53125 -3.507812 3.796875 -3.53125 4.042969 -3.574219 L 6.058594 0 L 7.195312 0 L 4.957031 -3.933594 C 5.402344 -4.222656 5.714844 -4.667969 5.9375 -5.257812 L 6.894531 -7.796875 L 5.859375 -7.796875 L 5.058594 -5.648438 C 4.746094 -4.800781 4.289062 -4.445312 3.230469 -4.445312 L 2.117188 -4.445312 L 2.117188 -7.796875 L 1.136719 -7.796875 Z M 1.136719 0 "/></g></g></g><g fill="#ffffff" fill-opacity="1"><g transform="translate(130.423629, 20.4405)"><g><path d="M 4.679688 0.144531 C 7.050781 0.144531 8.722656 -1.527344 8.722656 -3.898438 C 8.722656 -6.273438 7.050781 -7.941406 4.679688 -7.941406 C 2.304688 -7.941406 0.644531 -6.273438 0.644531 -3.898438 C 0.644531 -1.527344 2.304688 0.144531 4.679688 0.144531 Z M 1.648438 -3.898438 C 1.648438 -5.714844 2.886719 -6.960938 4.679688 -6.960938 C 6.472656 -6.960938 7.707031 -5.714844 7.707031 -3.898438 C 7.707031 -2.082031 6.472656 -0.835938 4.679688 -0.835938 C 2.886719 -0.835938 1.648438 -2.082031 1.648438 -3.898438 Z M 1.648438 -3.898438 "/></g></g></g><g fill="#c6ac82" fill-opacity="1"><g transform="translate(42.125833, 31.938399)"><g><path d="M 0.546875 0 L 2.839844 0 L 2.839844 -0.449219 L 1.019531 -0.449219 L 1.019531 -3.753906 L 0.546875 -3.753906 Z M 0.546875 0 "/></g></g></g><g fill="#c6ac82" fill-opacity="1"><g transform="translate(47.175202, 31.938399)"><g><path d="M 0.0898438 0 L 0.59375 0 L 0.9375 -0.851562 L 2.765625 -0.851562 L 3.121094 0 L 3.617188 0 L 2.074219 -3.753906 L 1.636719 -3.753906 Z M 1.121094 -1.292969 L 1.855469 -3.09375 L 2.589844 -1.292969 Z M 1.121094 -1.292969 "/></g></g></g><g fill="#c6ac82" fill-opacity="1"><g transform="translate(52.926773, 31.938399)"><g><path d="M 1.320312 0 L 1.757812 0 L 2.882812 -3.039062 L 3.503906 -1.367188 L 4.015625 0 L 4.453125 0 L 5.675781 -3.753906 L 5.183594 -3.753906 L 4.21875 -0.75 L 3.109375 -3.753906 L 2.664062 -3.753906 L 1.554688 -0.753906 L 1.113281 -2.132812 L 0.59375 -3.753906 L 0.101562 -3.753906 Z M 1.320312 0 "/></g></g></g><g fill="#c6ac82" fill-opacity="1"><g transform="translate(60.747415, 31.938399)"><g/></g></g><g fill="#c6ac82" fill-opacity="1"><g transform="translate(64.119021, 31.938399)"><g><path d="M 0.546875 0 L 1.019531 0 L 1.019531 -1.582031 L 2.558594 -1.582031 L 2.558594 -2.015625 L 1.019531 -2.015625 L 1.019531 -3.3125 L 2.695312 -3.3125 L 2.695312 -3.753906 L 0.546875 -3.753906 Z M 0.546875 0 "/></g></g></g><g fill="#c6ac82" fill-opacity="1"><g transform="translate(69.152311, 31.938399)"><g><path d="M 0.546875 0 L 1.019531 0 L 1.019531 -3.753906 L 0.546875 -3.753906 Z M 0.546875 0 "/></g></g></g><g fill="#c6ac82" fill-opacity="1"><g transform="translate(72.759768, 31.938399)"><g><path d="M 0.546875 0 L 1.019531 0 L 1.019531 -1.34375 L 1.84375 -1.34375 L 2.761719 0 L 3.328125 0 L 2.386719 -1.394531 C 2.933594 -1.527344 3.269531 -1.941406 3.269531 -2.546875 C 3.269531 -3.292969 2.753906 -3.753906 1.976562 -3.753906 L 0.546875 -3.753906 Z M 1.019531 -1.796875 L 1.019531 -3.300781 L 1.925781 -3.300781 C 2.472656 -3.300781 2.789062 -3.023438 2.789062 -2.546875 C 2.789062 -2.070312 2.472656 -1.796875 1.925781 -1.796875 Z M 1.019531 -1.796875 "/></g></g></g><g fill="#c6ac82" fill-opacity="1"><g transform="translate(78.452374, 31.938399)"><g><path d="M 0.546875 0 L 1.019531 0 L 1.019531 -2.875 L 2.261719 -0.996094 L 2.648438 -0.996094 L 3.890625 -2.867188 L 3.890625 0 L 4.363281 0 L 4.363281 -3.753906 L 3.921875 -3.753906 L 2.460938 -1.527344 L 0.984375 -3.753906 L 0.546875 -3.753906 Z M 0.546875 0 "/></g></g></g><g clip-path="url(#fe36957030)"><path fill="#ffffff" d="M 8.847656 17.339844 L 8.847656 12.726562 L 19.363281 6.652344 L 29.878906 12.726562 L 29.878906 17.339844 L 32.808594 17.339844 L 32.808594 11.035156 L 19.363281 3.269531 L 5.917969 11.035156 L 5.917969 17.339844 L 8.847656 17.339844 " fill-opacity="1" fill-rule="nonzero"/></g><path fill="#ffffff" d="M 20.828125 17.339844 L 23.757812 17.339844 L 23.757812 12.429688 L 20.828125 10.738281 L 20.828125 17.339844 " fill-opacity="1" fill-rule="nonzero"/><path fill="#ffffff" d="M 14.96875 17.339844 L 17.898438 17.339844 L 17.898438 10.738281 L 14.96875 12.429688 L 14.96875 17.339844 " fill-opacity="1" fill-rule="nonzero"/><g clip-path="url(#4e58a5baa3)"><path fill="#c6ac82" d="M 23.757812 20.273438 L 20.828125 20.273438 L 20.828125 33.492188 L 23.757812 31.800781 L 23.757812 20.273438 " fill-opacity="1" fill-rule="nonzero"/></g><g clip-path="url(#31ab7cd489)"><path fill="#c6ac82" d="M 14.96875 20.273438 L 14.96875 31.800781 L 17.898438 33.492188 L 17.898438 20.273438 L 14.96875 20.273438 " fill-opacity="1" fill-rule="nonzero"/></g><path fill="#c6ac82" d="M 31.542969 29.355469 L 31.542969 20.746094 L 33.96875 29.355469 Z M 31.21875 29.355469 L 28.796875 29.355469 L 31.21875 20.746094 Z M 31.75 20.273438 L 31.011719 20.273438 L 28.457031 29.355469 L 27.921875 29.355469 L 27.921875 29.519531 C 27.921875 30.730469 29.472656 31.714844 31.382812 31.714844 C 33.289062 31.714844 34.84375 30.730469 34.84375 29.519531 L 34.84375 29.355469 L 34.308594 29.355469 L 31.75 20.273438 " fill-opacity="1" fill-rule="nonzero"/><g clip-path="url(#69423bcc13)"><path fill="#c6ac82" d="M 7.507812 29.355469 L 7.507812 20.746094 L 9.929688 29.355469 Z M 7.179688 29.355469 L 4.757812 29.355469 L 7.179688 20.746094 Z M 7.714844 20.273438 L 6.972656 20.273438 L 4.417969 29.355469 L 3.882812 29.355469 L 3.882812 29.519531 C 3.882812 30.730469 5.4375 31.714844 7.34375 31.714844 C 9.253906 31.714844 10.804688 30.730469 10.804688 29.519531 L 10.804688 29.355469 L 10.269531 29.355469 L 7.714844 20.273438 " fill-opacity="1" fill-rule="nonzero"/></g></svg>